<?xml version="1.0" encoding="UTF-8"?>
<svg width="30px" height="29px" viewBox="0 0 30 29" version="1.1" xmlns="http://www.w3.org/2000/svg" xmlns:xlink="http://www.w3.org/1999/xlink">
    <title>Group 29</title>
    <g id="Symbols" stroke="none" stroke-width="1" fill="none" fill-rule="evenodd">
        <g id="historico-menu-item/vacinas" transform="translate(-20.000000, -21.000000)">
            <g id="registro-de-vacinas-copy-3">
                <g id="Oval">
                    <g id="Group-29" transform="translate(20.000000, 21.000000)">
                        <path d="M7.90218466,13.2475931 C7.90218466,13.2475931 7.90218466,13.2475931 7.90218466,13.2475931 C9.90065752,13.1928466 13.6554289,13.1985292 19.1664989,13.264641 C20.7099248,13.2831687 21.9461093,14.5493722 21.9275941,16.0927983 C21.9269311,16.1480663 21.9246287,16.2033026 21.92069,16.2584341 C21.7927147,18.0497461 20.6059681,19.5909075 18.9068274,20.1723687 L11.0518378,22.8604169 C8.70317222,23.6641514 6.147647,22.4117373 5.34391248,20.0630717 C5.30961408,19.9628452 5.27886961,19.8614376 5.25173668,19.7590387 L4.6710352,17.5674879 C4.18445923,15.7309614 5.2787589,13.8476848 7.11527212,13.3610586 C7.37230943,13.2929507 7.63637676,13.2548746 7.90218466,13.2475931 Z" id="Rectangle-Copy-14" fill="#57CBDA" fill-rule="nonzero" transform="translate(12.903494, 18.816401) rotate(-24.000000) translate(-12.903494, -18.816401) "></path>
                        <path d="M28.8528252,0.365017004 C28.3578052,-0.125595191 27.612293,-0.119684201 27.1172729,0.370927995 L22.2446054,5.20020708 C20.5985146,4.30764754 18.4931882,4.54999814 17.0975894,5.93316988 L16.0777288,6.94394922 C14.2169304,6.56564584 12.2070296,7.08581299 10.7696822,8.51627264 L3.2131709,15.9995864 C1.441834,17.7551505 1.441834,20.6042478 3.2131709,22.3657229 L4.06603681,23.2109946 L3.16545812,24.1035541 L2.12770519,23.0750418 C1.64461331,22.5962516 0.851388364,22.5844296 0.368296482,23.0632198 C-0.126723595,23.553832 -0.120759498,24.2927058 0.374260579,24.783318 L4.22110335,28.5959067 C4.77576439,29.0746969 5.35428183,29.1042519 5.95665566,28.5959067 C6.45167574,28.1052945 6.45167574,27.3664207 5.95665566,26.8758085 L4.90101044,25.8295633 L5.80158913,24.9370037 L6.66638324,25.7940973 C8.45561244,27.5673944 11.3541637,27.5673944 13.1433929,25.8000083 L20.6700837,18.3580715 C22.1372517,16.9098789 22.6620922,14.8764982 22.2505695,13.0086253 L23.2406097,12.0274009 C24.6362084,10.6442292 24.8807364,8.55764957 23.9861218,6.92621625 L28.840897,2.11467014 C29.3239889,1.62405794 29.3359171,0.84380722 28.8528252,0.365017004 Z M19.1373107,16.3365128 L11.3601278,24.0444442 C10.5549747,24.783318 9.18919641,24.783318 8.44368424,24.0444442 C8.44368424,24.0444442 6.51728081,22.1351943 4.84733356,20.486028 C4.0898932,19.7353323 4.0898932,18.5176682 4.84733356,17.7728835 L5.27674857,17.3472922 L7.203152,19.256542 C7.69817208,19.7471542 8.44368424,19.7471542 8.93870432,19.256542 C9.4337244,18.7659298 9.4337244,18.0270561 8.93870432,17.5364439 L7.01230089,15.627194 L8.37807917,14.2735772 L10.3044826,16.1828271 C10.7995027,16.6734393 11.5450148,16.6734393 12.0400349,16.1828271 C12.535055,15.6922149 12.535055,14.9533411 12.0400349,14.4627289 L10.1136315,12.553479 L11.4138047,11.2648831 L13.3402081,13.174133 C13.8352282,13.6647452 14.5807404,13.6647452 15.0757605,13.174133 C15.5707805,12.6835208 15.5707805,11.944647 15.0757605,11.4540348 L13.2030339,9.57433991 C14.4197097,8.77635622 16.0717647,8.91230899 17.1393381,9.97037626 L19.1373107,11.950558 C20.3599507,13.162311 20.3599507,15.1247598 19.1373107,16.3365128 Z M21.5050574,10.3013917 L21.1651038,10.6383182 L18.4931882,7.9901945 L18.8331418,7.65326806 C19.5726898,6.92030526 20.7655093,6.92030526 21.4990933,7.65326806 C22.2386413,8.38623086 22.2386413,9.56842892 21.5050574,10.3013917 Z" id="Shape-Copy-7" fill="#212B36"></path>
                    </g>
                </g>
            </g>
        </g>
    </g>
</svg>